<svg width="41" height="28" viewBox="0 0 41 28" fill="none" xmlns="http://www.w3.org/2000/svg">
<g id="Group 237670">
<path id="Vector" d="M11.8046 0.643433C15.9027 0.643433 19.2334 3.60664 19.2334 7.70475C19.2451 8.76169 19.0018 9.80588 18.5241 10.7488C18.0465 11.6917 17.3485 12.5056 16.4894 13.1215C17.5916 13.7672 18.5037 14.6926 19.1333 15.804C19.7629 16.9155 20.0878 18.1735 20.0749 19.4509C20.0749 23.8038 16.5191 26.9893 12.1721 26.9893H0.5V0.643433H11.8046ZM4.81739 4.96082V11.1835H11.8787C12.7039 11.1737 13.4914 10.8365 14.0679 10.2461C14.6445 9.65562 14.9628 8.86033 14.953 8.03514C14.9432 7.20996 14.606 6.42247 14.0155 5.84593C13.4251 5.26938 12.6298 4.951 11.8046 4.96082H4.81739ZM4.81739 15.5009V22.6719H12.1721C13.123 22.6719 14.035 22.2941 14.7074 21.6217C15.3798 20.9493 15.7575 20.0373 15.7575 19.0864C15.7575 18.1355 15.3798 17.2235 14.7074 16.5511C14.035 15.8787 13.123 15.5009 12.1721 15.5009H4.81739Z" fill="#1D1D1D"/>
<path id="Vector_2" d="M36.1948 9.85009C34.2098 8.49837 31.7946 7.92942 29.415 8.25292C28.6453 8.36028 27.8931 8.5685 27.1778 8.87223C25.0622 9.79842 23.3486 11.4521 22.3477 13.5333C21.7749 14.7252 21.4772 16.0305 21.4766 17.3529C21.4766 17.5129 21.4766 17.6759 21.4766 17.8418C21.4766 18.0078 21.4766 18.1708 21.4766 18.3308C21.7047 23.3356 25.471 27.3567 30.538 27.3567C30.6032 27.3567 30.6743 27.3567 30.7425 27.3567C32.9679 27.2885 35.0421 26.3551 36.1741 25.1195C36.1741 26.2129 36.1741 25.9729 36.1741 27.0663H40.5003V17.8418C40.4871 16.5011 40.1974 15.1775 39.6493 13.9538C39.1012 12.7301 38.3065 11.6327 37.3149 10.7302C36.966 10.4066 36.5936 10.1095 36.2007 9.8412M32.2834 22.8793C31.1789 23.1629 30.0118 23.0756 28.9618 22.6309C27.9117 22.1862 27.037 21.4087 26.4722 20.4181C25.9074 19.4274 25.6839 18.2786 25.836 17.1485C25.9881 16.0184 26.5075 14.9696 27.3141 14.1636C28.1208 13.3576 29.17 12.839 30.3002 12.6878C31.4305 12.5366 32.5791 12.761 33.5693 13.3266C34.5594 13.8922 35.3363 14.7676 35.7802 15.8179C36.224 16.8683 36.3104 18.0355 36.0259 19.1397C35.7929 20.0405 35.3228 20.8624 34.6647 21.52C34.0066 22.1776 33.1843 22.647 32.2834 22.8793Z" fill="#1D1D1D"/>
</g>
</svg>
