<svg width="33" height="33" viewBox="0 0 33 33" fill="none" xmlns="http://www.w3.org/2000/svg">
<g id="Frame" clip-path="url(#clip0_22_37)">
<path id="Vector" d="M16.5 16.5C22.5751 16.5 27.5 13.8137 27.5 10.5C27.5 7.18629 22.5751 4.5 16.5 4.5C10.4249 4.5 5.5 7.18629 5.5 10.5C5.5 13.8137 10.4249 16.5 16.5 16.5Z" stroke="#1D1D1D" stroke-width="2" stroke-linecap="round" stroke-linejoin="round"/>
<path id="Vector_2" d="M5.5 10.5V16.5C5.5 19.8138 10.425 22.5 16.5 22.5C22.575 22.5 27.5 19.8138 27.5 16.5V10.5" stroke="#1D1D1D" stroke-width="2" stroke-linecap="round" stroke-linejoin="round"/>
<path id="Vector_3" d="M5.5 16.5V22.5C5.5 25.8138 10.425 28.5 16.5 28.5C22.575 28.5 27.5 25.8138 27.5 22.5V16.5" stroke="#1D1D1D" stroke-width="2" stroke-linecap="round" stroke-linejoin="round"/>
</g>
<defs>
<clipPath id="clip0_22_37">
<rect width="32" height="32" fill="white" transform="translate(0.5 0.5)"/>
</clipPath>
</defs>
</svg>
