<svg width="33" height="33" viewBox="0 0 33 33" fill="none" xmlns="http://www.w3.org/2000/svg">
<g clip-path="url(#clip0_62_52)">
<path d="M11.5 29.5H21.5" stroke="#1D1D1D" stroke-width="2" stroke-linecap="round" stroke-linejoin="round"/>
<path d="M10.3377 21.375C9.14887 20.4463 8.18599 19.2604 7.52133 17.9062C6.85668 16.552 6.50755 15.0648 6.50015 13.5563C6.47015 8.13625 10.8402 3.625 16.2589 3.5C18.3589 3.44914 20.4216 4.06088 22.1544 5.24843C23.8871 6.43598 25.2019 8.13903 25.9121 10.1159C26.6224 12.0929 26.692 14.2432 26.1112 16.262C25.5304 18.2807 24.3286 20.0653 22.6764 21.3625C22.312 21.6451 22.0167 22.0069 21.8129 22.4206C21.6091 22.8342 21.5021 23.2889 21.5002 23.75V24.5C21.5002 24.7652 21.3948 25.0196 21.2073 25.2071C21.0197 25.3946 20.7654 25.5 20.5002 25.5H12.5002C12.2349 25.5 11.9806 25.3946 11.793 25.2071C11.6055 25.0196 11.5002 24.7652 11.5002 24.5V23.75C11.4997 23.2918 11.3947 22.8397 11.1933 22.4282C10.9918 22.0167 10.6992 21.6565 10.3377 21.375Z" stroke="#1D1D1D" stroke-width="2" stroke-linecap="round" stroke-linejoin="round"/>
<path d="M17.5 7.5C20 7.92125 22.0762 10 22.5 12.5" stroke="#1D1D1D" stroke-width="2" stroke-linecap="round" stroke-linejoin="round"/>
</g>
<defs>
<clipPath id="clip0_62_52">
<rect width="32" height="32" fill="white" transform="translate(0.5 0.5)"/>
</clipPath>
</defs>
</svg>
