<svg width="33" height="33" viewBox="0 0 33 33" fill="none" xmlns="http://www.w3.org/2000/svg">
<g id="Frame" clip-path="url(#clip0_22_44)">
<path id="Vector" d="M3.5 28.5H29.5" stroke="#1D1D1D" stroke-width="2" stroke-linecap="round" stroke-linejoin="round"/>
<path id="Vector_2" d="M7.5 28.5V5.5C7.5 5.23478 7.60536 4.98043 7.79289 4.79289C7.98043 4.60536 8.23478 4.5 8.5 4.5H24.5C24.7652 4.5 25.0196 4.60536 25.2071 4.79289C25.3946 4.98043 25.5 5.23478 25.5 5.5V28.5" stroke="#1D1D1D" stroke-width="2" stroke-linecap="round" stroke-linejoin="round"/>
<path id="Vector_3" d="M20.5 4.5C20.7652 4.5 21.0196 4.60536 21.2071 4.79289C21.3946 4.98043 21.5 5.23478 21.5 5.5V28.5" stroke="#1D1D1D" stroke-width="2" stroke-linecap="round" stroke-linejoin="round"/>
<path id="Vector_4" d="M17 18.5C17.8284 18.5 18.5 17.8284 18.5 17C18.5 16.1716 17.8284 15.5 17 15.5C16.1716 15.5 15.5 16.1716 15.5 17C15.5 17.8284 16.1716 18.5 17 18.5Z" fill="#1D1D1D"/>
</g>
<defs>
<clipPath id="clip0_22_44">
<rect width="32" height="32" fill="white" transform="translate(0.5 0.5)"/>
</clipPath>
</defs>
</svg>
